# xmcd
#
# Track frame offsets:
#	182
#	13620
#	30167
#	47677
#	64487
#	78932
#	95665
#	112327
#	129265
#	143045
#	159640
#	174242
#
# Disc length: 2534 seconds
#
# Revision: 1
# Processed by: cddbd v1.5PL3 Copyright (c) Steve Scherf et al.
# Submitted via: audiograbber 1.83.01
#
DISCID=9709e40c
DTITLE=Matraca Berg - Lying to the moon and other stories
DYEAR=1999
DGENRE=
TTITLE0=the things you left undone
TTITLE1=i got it bad
TTITLE2=lying to the moon
TTITLE3=calico plains
TTITLE4=baby, walk on
TTITLE5=back in the saddle
TTITLE6=appalachian rain
TTITLE7=back when we were beautiful
TTITLE8=along for the ride
TTITLE9=i must have been crazy
TTITLE10=alice in the looking glass
TTITLE11=eat at joe's
EXTD=
EXTT0=
EXTT1=
EXTT2=
EXTT3=
EXTT4=
EXTT5=
EXTT6=
EXTT7=
EXTT8=
EXTT9=
EXTT10=
EXTT11=
PLAYORDER=
